<svg width="362" height="63" viewBox="0 0 362 63" fill="none" xmlns="http://www.w3.org/2000/svg">
<path fill-rule="evenodd" clip-rule="evenodd" d="M6.8037 4.43136C7.29446 3.78307 7.78376 3.10195 8.19013 2.50821C11.4187 5.11102 18.7684 9.62352 22.4772 6.95312C19.0721 6.76738 11.7424 5.13314 9.66057 0.0821552C9.66393 0.0806699 9.66698 0.0799103 9.6697 0.0799103C9.73327 0.0799103 13.1474 0.694851 17.2568 1.44609C26.3409 3.10734 31.6606 4.34351 36.8714 6.00397C44.451 8.41882 47.4497 10.1683 53.0612 15.4494C54.5815 16.8802 57.4396 19.1328 59.4124 20.4556C67.2431 25.706 72.7639 30.8473 73.1181 33.2196C73.3021 34.4519 73.1796 34.7588 72.2217 35.4655C71.52 35.9831 70.7283 37.2693 70.0692 38.9625C68.545 42.8778 68.408 43.0634 64.1524 46.9665C60.3802 50.4261 59.183 51.2821 57.3061 51.8597C56.4879 52.1114 56.4177 52.009 56.4177 50.5723C56.4177 49.3834 56.6988 48.7117 57.5975 47.7517C58.2463 47.0587 58.982 45.8099 59.2323 44.976C59.6272 43.6618 59.5711 43.1737 58.8098 41.3033C56.4702 35.5522 49.4837 31.1873 42.6543 31.2098C39.3958 31.2204 37.1897 32.1548 35.641 34.1801C34.6024 35.538 34.5021 35.9504 34.5021 38.8577C34.5021 41.6811 34.6546 42.3547 35.8317 44.7431C37.4183 47.9605 41.3252 52.1161 43.8306 53.2503C45.7339 54.1118 48.5091 54.297 49.1993 53.6084C49.5255 53.283 49.7549 53.5666 50.0736 54.6917C50.493 56.1701 50.4625 56.2533 49.0781 57.4315C47.6546 58.6429 44.0368 60.6114 41.4124 61.6022C40.6191 61.9016 38.4323 62.1241 36.2791 62.1245C32.9744 62.1253 32.2928 62.0004 30.5534 61.0771C27.4872 59.4493 25.1207 56.5991 24.6184 53.929L24.3519 52.5116L27.0536 52.3942C29.12 52.3044 29.783 52.1331 29.8722 51.6651C30.1301 50.3146 25.2463 46.2311 20.4612 43.7953C18.7285 42.9137 16.9208 41.2343 14.3975 38.162C13.9262 37.5883 13.4532 37.0737 13.0972 36.7356C10.4313 24.7787 19.2042 18.0033 24.1623 16.0555C9.97806 17.8285 10.1656 31.623 12.0547 38.4153C11.8488 38.6809 11.3335 38.6859 10.0448 38.6859C8.14391 38.6859 7.59661 38.8916 5.26567 40.4839C3.81806 41.4727 2.5821 42.2259 2.51972 42.1581C2.45693 42.09 1.91871 40.1731 1.32364 37.8981C0.417014 34.433 0.213258 32.7067 0.0679388 27.2617C-0.0915874 21.2951 -0.0252486 20.4505 0.875059 16.9673C2.05455 12.4035 4.19596 7.87597 6.8037 4.43136ZM46.9359 14.6537C47.9156 15.282 49.4284 16.5308 50.2971 17.429L51.8766 19.0619L50.3018 18.4154C47.9579 17.4534 45.3612 15.6894 43.5842 13.852L42.0048 12.2191L43.5795 12.8656C44.4455 13.2209 45.9559 14.0257 46.9359 14.6537Z" fill="#004D61"/>
<path d="M86.8402 49.2193C86.5093 49.2193 86.2115 49.1034 85.9467 48.8718C85.7151 48.6071 85.5993 48.3093 85.5993 47.9784V15.7152C85.5993 15.3512 85.7151 15.0533 85.9467 14.8217C86.2115 14.5901 86.5093 14.4743 86.8402 14.4743H100.738C104.974 14.4743 108.299 15.4504 110.715 17.4028C113.164 19.3551 114.388 22.2009 114.388 25.9401C114.388 29.6462 113.18 32.4424 110.765 34.3285C108.349 36.1816 105.007 37.1081 100.738 37.1081H94.8315V47.9784C94.8315 48.3424 94.6992 48.6402 94.4344 48.8718C94.2028 49.1034 93.905 49.2193 93.541 49.2193H86.8402ZM100.49 30.2584C101.946 30.2584 103.088 29.8944 103.915 29.1664C104.742 28.4053 105.156 27.2968 105.156 25.8408C105.156 24.4841 104.759 23.4087 103.965 22.6145C103.203 21.7873 102.045 21.3736 100.49 21.3736H94.6826V30.2584H100.49Z" fill="#004D61"/>
<path d="M127.301 49.7156C124.389 49.7156 122.04 48.7394 120.253 46.7871C118.466 44.8017 117.572 42.0386 117.572 38.4979V24.6496C117.572 24.2856 117.688 23.9878 117.92 23.7561C118.152 23.5245 118.449 23.4087 118.813 23.4087H125.018C125.382 23.4087 125.68 23.5245 125.911 23.7561C126.176 23.9878 126.308 24.2856 126.308 24.6496V38.2001C126.308 41.443 127.748 43.0644 130.627 43.0644C132.016 43.0644 133.108 42.6342 133.903 41.7739C134.697 40.9135 135.094 39.7223 135.094 38.2001V24.6496C135.094 24.2856 135.21 23.9878 135.441 23.7561C135.706 23.5245 136.004 23.4087 136.335 23.4087H142.539C142.903 23.4087 143.201 23.5245 143.433 23.7561C143.664 23.9878 143.78 24.2856 143.78 24.6496V47.9784C143.78 48.3093 143.664 48.6071 143.433 48.8718C143.201 49.1034 142.903 49.2193 142.539 49.2193H136.781C136.451 49.2193 136.153 49.1034 135.888 48.8718C135.656 48.6071 135.541 48.3093 135.541 47.9784V46.0922C133.82 48.5078 131.073 49.7156 127.301 49.7156Z" fill="#004D61"/>
<path d="M150.084 49.2193C149.72 49.2193 149.422 49.1034 149.19 48.8718C148.959 48.6402 148.843 48.3424 148.843 47.9784V24.6496C148.843 24.2856 148.959 23.9878 149.19 23.7561C149.422 23.5245 149.72 23.4087 150.084 23.4087H155.494C155.858 23.4087 156.156 23.5245 156.388 23.7561C156.619 23.9878 156.735 24.2856 156.735 24.6496V26.3372C157.496 25.3445 158.505 24.5338 159.763 23.905C161.053 23.2432 162.493 22.9123 164.081 22.9123C167.721 22.9123 170.236 24.3352 171.626 27.181C172.42 25.9236 173.528 24.8978 174.951 24.1036C176.374 23.3094 177.896 22.9123 179.518 22.9123C182.231 22.9123 184.432 23.8389 186.119 25.6919C187.84 27.5119 188.7 30.2419 188.7 33.8818V47.9784C188.7 48.3093 188.585 48.6071 188.353 48.8718C188.121 49.1034 187.824 49.2193 187.46 49.2193H181.702C181.338 49.2193 181.023 49.1034 180.759 48.8718C180.527 48.6402 180.411 48.3424 180.411 47.9784V34.2293C180.411 32.5747 180.064 31.3835 179.369 30.6555C178.707 29.9275 177.797 29.5635 176.639 29.5635C175.58 29.5635 174.703 29.9441 174.008 30.7051C173.313 31.4331 172.966 32.6078 172.966 34.2293V47.9784C172.966 48.3093 172.85 48.6071 172.618 48.8718C172.387 49.1034 172.089 49.2193 171.725 49.2193H165.967C165.603 49.2193 165.305 49.1034 165.074 48.8718C164.842 48.6402 164.726 48.3424 164.726 47.9784V34.2293C164.726 32.6078 164.362 31.4331 163.634 30.7051C162.939 29.9441 162.046 29.5635 160.954 29.5635C159.895 29.5635 159.002 29.9441 158.274 30.7051C157.579 31.4331 157.231 32.5913 157.231 34.1796V47.9784C157.231 48.3093 157.116 48.6071 156.884 48.8718C156.652 49.1034 156.354 49.2193 155.99 49.2193H150.084Z" fill="#004D61"/>
<path d="M201.278 49.7156C199.524 49.7156 197.919 49.3847 196.463 48.7229C195.04 48.028 193.915 47.1015 193.088 45.9433C192.294 44.752 191.896 43.445 191.896 42.0221C191.896 39.7388 192.823 37.9023 194.676 36.5125C196.562 35.1227 199.143 34.1631 202.419 33.6336L208.624 32.6906V31.9957C208.624 30.7382 208.359 29.8117 207.83 29.2161C207.3 28.6204 206.407 28.3226 205.149 28.3226C204.388 28.3226 203.759 28.455 203.263 28.7197C202.767 28.9844 202.254 29.3484 201.724 29.8117C201.261 30.2088 200.914 30.4735 200.682 30.6059C200.583 30.8706 200.401 31.0029 200.136 31.0029H194.726C194.395 31.0029 194.114 30.9037 193.882 30.7051C193.683 30.4735 193.601 30.2088 193.634 29.911C193.667 29.0175 194.097 28.0248 194.924 26.9328C195.785 25.8408 197.075 24.8978 198.796 24.1036C200.55 23.3094 202.701 22.9123 205.248 22.9123C209.319 22.9123 212.33 23.8223 214.282 25.6423C216.235 27.4292 217.211 29.8448 217.211 32.8891V47.9784C217.211 48.3093 217.095 48.6071 216.863 48.8718C216.632 49.1034 216.334 49.2193 215.97 49.2193H210.212C209.881 49.2193 209.583 49.1034 209.319 48.8718C209.087 48.6071 208.971 48.3093 208.971 47.9784V46.2411C208.243 47.2669 207.217 48.1107 205.894 48.7725C204.603 49.4012 203.065 49.7156 201.278 49.7156ZM203.611 44.0571C205.133 44.0571 206.357 43.5608 207.284 42.5681C208.243 41.5754 208.723 40.1194 208.723 38.2001V37.5052L204.504 38.2498C201.526 38.7792 200.037 39.8216 200.037 41.3768C200.037 42.2041 200.384 42.8659 201.079 43.3622C201.774 43.8255 202.618 44.0571 203.611 44.0571Z" fill="#004D61"/>
<path d="M226.012 49.2193C225.681 49.2193 225.383 49.1034 225.118 48.8718C224.887 48.6071 224.771 48.3093 224.771 47.9784V29.911H220.999C220.635 29.911 220.337 29.7951 220.105 29.5635C219.873 29.3319 219.758 29.0341 219.758 28.6701V24.6496C219.758 24.2856 219.873 23.9878 220.105 23.7561C220.337 23.5245 220.635 23.4087 220.999 23.4087H224.771V21.8203C224.771 18.5444 225.697 16.1784 227.55 14.7224C229.437 13.2334 232.133 12.4888 235.641 12.4888H239.513C239.877 12.4888 240.174 12.6046 240.406 12.8363C240.638 13.0679 240.754 13.3657 240.754 13.7297V17.7502C240.754 18.0811 240.638 18.3789 240.406 18.6437C240.174 18.8753 239.877 18.9911 239.513 18.9911H236.038C234.946 18.9911 234.169 19.2558 233.705 19.7853C233.242 20.2816 233.01 21.0427 233.01 22.0685V23.4087H239.016C239.38 23.4087 239.678 23.5245 239.91 23.7561C240.141 23.9878 240.257 24.2856 240.257 24.6496V28.6701C240.257 29.001 240.141 29.2988 239.91 29.5635C239.678 29.7951 239.38 29.911 239.016 29.911H233.01V47.9784C233.01 48.3093 232.895 48.6071 232.663 48.8718C232.431 49.1034 232.133 49.2193 231.769 49.2193H226.012Z" fill="#004D61"/>
<path d="M250.429 49.7156C248.675 49.7156 247.07 49.3847 245.614 48.7229C244.191 48.028 243.066 47.1015 242.239 45.9433C241.445 44.752 241.047 43.445 241.047 42.0221C241.047 39.7388 241.974 37.9023 243.827 36.5125C245.713 35.1227 248.294 34.1631 251.57 33.6336L257.775 32.6906V31.9957C257.775 30.7382 257.51 29.8117 256.981 29.2161C256.451 28.6204 255.558 28.3226 254.3 28.3226C253.539 28.3226 252.91 28.455 252.414 28.7197C251.918 28.9844 251.405 29.3484 250.875 29.8117C250.412 30.2088 250.065 30.4735 249.833 30.6059C249.734 30.8706 249.552 31.0029 249.287 31.0029H243.877C243.546 31.0029 243.265 30.9037 243.033 30.7051C242.834 30.4735 242.752 30.2088 242.785 29.911C242.818 29.0175 243.248 28.0248 244.075 26.9328C244.936 25.8408 246.226 24.8978 247.947 24.1036C249.701 23.3094 251.852 22.9123 254.399 22.9123C258.47 22.9123 261.481 23.8223 263.433 25.6423C265.385 27.4292 266.362 29.8448 266.362 32.8891V47.9784C266.362 48.3093 266.246 48.6071 266.014 48.8718C265.783 49.1034 265.485 49.2193 265.121 49.2193H259.363C259.032 49.2193 258.734 49.1034 258.47 48.8718C258.238 48.6071 258.122 48.3093 258.122 47.9784V46.2411C257.394 47.2669 256.368 48.1107 255.045 48.7725C253.754 49.4012 252.215 49.7156 250.429 49.7156ZM252.761 44.0571C254.284 44.0571 255.508 43.5608 256.435 42.5681C257.394 41.5754 257.874 40.1194 257.874 38.2001V37.5052L253.655 38.2498C250.677 38.7792 249.188 39.8216 249.188 41.3768C249.188 42.2041 249.535 42.8659 250.23 43.3622C250.925 43.8255 251.769 44.0571 252.761 44.0571Z" fill="#004D61"/>
<path d="M272.428 49.2193C272.064 49.2193 271.766 49.1034 271.535 48.8718C271.303 48.6402 271.187 48.3424 271.187 47.9784V24.6496C271.187 24.2856 271.303 23.9878 271.535 23.7561C271.766 23.5245 272.064 23.4087 272.428 23.4087H278.136C278.5 23.4087 278.798 23.541 279.03 23.8058C279.294 24.0374 279.427 24.3187 279.427 24.6496V26.635C281.247 24.4841 283.695 23.4087 286.773 23.4087H288.957C289.321 23.4087 289.619 23.5245 289.85 23.7561C290.082 23.9878 290.198 24.2856 290.198 24.6496V29.7621C290.198 30.093 290.082 30.3908 289.85 30.6555C289.619 30.8871 289.321 31.0029 288.957 31.0029H284.142C282.785 31.0029 281.727 31.3835 280.965 32.1446C280.237 32.8726 279.873 33.9149 279.873 35.2716V47.9784C279.873 48.3424 279.741 48.6402 279.476 48.8718C279.245 49.1034 278.947 49.2193 278.583 49.2193H272.428Z" fill="#004D61"/>
<path d="M294.192 49.2193C293.828 49.2193 293.53 49.1034 293.299 48.8718C293.067 48.6402 292.951 48.3424 292.951 47.9784V24.6496C292.951 24.2856 293.067 23.9878 293.299 23.7561C293.53 23.5245 293.828 23.4087 294.192 23.4087H299.602C299.966 23.4087 300.264 23.5245 300.496 23.7561C300.728 23.9878 300.843 24.2856 300.843 24.6496V26.3372C301.604 25.3445 302.614 24.5338 303.871 23.905C305.162 23.2432 306.601 22.9123 308.189 22.9123C311.829 22.9123 314.344 24.3352 315.734 27.181C316.528 25.9236 317.637 24.8978 319.06 24.1036C320.483 23.3094 322.005 22.9123 323.626 22.9123C326.34 22.9123 328.54 23.8389 330.228 25.6919C331.948 27.5119 332.809 30.2419 332.809 33.8818V47.9784C332.809 48.3093 332.693 48.6071 332.461 48.8718C332.23 49.1034 331.932 49.2193 331.568 49.2193H325.81C325.446 49.2193 325.132 49.1034 324.867 48.8718C324.635 48.6402 324.52 48.3424 324.52 47.9784V34.2293C324.52 32.5747 324.172 31.3835 323.477 30.6555C322.815 29.9275 321.905 29.5635 320.747 29.5635C319.688 29.5635 318.811 29.9441 318.117 30.7051C317.422 31.4331 317.074 32.6078 317.074 34.2293V47.9784C317.074 48.3093 316.958 48.6071 316.727 48.8718C316.495 49.1034 316.197 49.2193 315.833 49.2193H310.076C309.712 49.2193 309.414 49.1034 309.182 48.8718C308.951 48.6402 308.835 48.3424 308.835 47.9784V34.2293C308.835 32.6078 308.471 31.4331 307.743 30.7051C307.048 29.9441 306.154 29.5635 305.062 29.5635C304.004 29.5635 303.11 29.9441 302.382 30.7051C301.687 31.4331 301.34 32.5913 301.34 34.1796V47.9784C301.34 48.3093 301.224 48.6071 300.992 48.8718C300.761 49.1034 300.463 49.2193 300.099 49.2193H294.192Z" fill="#004D61"/>
<path d="M345.386 49.7156C343.632 49.7156 342.027 49.3847 340.571 48.7229C339.148 48.028 338.023 47.1015 337.196 45.9433C336.402 44.752 336.005 43.445 336.005 42.0221C336.005 39.7388 336.931 37.9023 338.784 36.5125C340.671 35.1227 343.252 34.1631 346.528 33.6336L352.732 32.6906V31.9957C352.732 30.7382 352.467 29.8117 351.938 29.2161C351.408 28.6204 350.515 28.3226 349.258 28.3226C348.496 28.3226 347.868 28.455 347.371 28.7197C346.875 28.9844 346.362 29.3484 345.833 29.8117C345.369 30.2088 345.022 30.4735 344.79 30.6059C344.691 30.8706 344.509 31.0029 344.244 31.0029H338.834C338.503 31.0029 338.222 30.9037 337.99 30.7051C337.792 30.4735 337.709 30.2088 337.742 29.911C337.775 29.0175 338.205 28.0248 339.033 26.9328C339.893 25.8408 341.183 24.8978 342.904 24.1036C344.658 23.3094 346.809 22.9123 349.357 22.9123C353.427 22.9123 356.438 23.8223 358.391 25.6423C360.343 27.4292 361.319 29.8448 361.319 32.8891V47.9784C361.319 48.3093 361.203 48.6071 360.972 48.8718C360.74 49.1034 360.442 49.2193 360.078 49.2193H354.32C353.989 49.2193 353.692 49.1034 353.427 48.8718C353.195 48.6071 353.08 48.3093 353.08 47.9784V46.2411C352.352 47.2669 351.326 48.1107 350.002 48.7725C348.712 49.4012 347.173 49.7156 345.386 49.7156ZM347.719 44.0571C349.241 44.0571 350.465 43.5608 351.392 42.5681C352.352 41.5754 352.831 40.1194 352.831 38.2001V37.5052L348.612 38.2498C345.634 38.7792 344.145 39.8216 344.145 41.3768C344.145 42.2041 344.493 42.8659 345.187 43.3622C345.882 43.8255 346.726 44.0571 347.719 44.0571Z" fill="#004D61"/>
</svg>
