<svg width="364" height="56" viewBox="0 0 364 56" fill="none" xmlns="http://www.w3.org/2000/svg">
<g filter="url(#filter0_d)">
<path d="M5.6 47.36C5.17333 47.36 4.78933 47.2107 4.448 46.912C4.14933 46.5707 4 46.1867 4 45.76V4.16C4 3.69067 4.14933 3.30666 4.448 3.008C4.78933 2.70933 5.17333 2.56 5.6 2.56H23.52C28.9813 2.56 33.2693 3.81866 36.384 6.336C39.5413 8.85333 41.12 12.5227 41.12 17.344C41.12 22.1227 39.5627 25.728 36.448 28.16C33.3333 30.5493 29.024 31.744 23.52 31.744H15.904V45.76C15.904 46.2293 15.7333 46.6133 15.392 46.912C15.0933 47.2107 14.7093 47.36 14.24 47.36H5.6ZM23.2 22.912C25.0773 22.912 26.5493 22.4427 27.616 21.504C28.6827 20.5227 29.216 19.0933 29.216 17.216C29.216 15.4667 28.704 14.08 27.68 13.056C26.6987 11.9893 25.2053 11.456 23.2 11.456H15.712V22.912H23.2Z" fill="#004D61"/>
<path d="M57.77 48C54.0153 48 50.986 46.7413 48.682 44.224C46.378 41.664 45.226 38.1013 45.226 33.536V15.68C45.226 15.2107 45.3753 14.8267 45.674 14.528C45.9727 14.2293 46.3567 14.08 46.826 14.08H54.826C55.2953 14.08 55.6793 14.2293 55.978 14.528C56.3193 14.8267 56.49 15.2107 56.49 15.68V33.152C56.49 37.3333 58.346 39.424 62.058 39.424C63.85 39.424 65.258 38.8693 66.282 37.76C67.306 36.6507 67.818 35.1147 67.818 33.152V15.68C67.818 15.2107 67.9673 14.8267 68.266 14.528C68.6073 14.2293 68.9913 14.08 69.418 14.08H77.418C77.8873 14.08 78.2713 14.2293 78.57 14.528C78.8687 14.8267 79.018 15.2107 79.018 15.68V45.76C79.018 46.1867 78.8687 46.5707 78.57 46.912C78.2713 47.2107 77.8873 47.36 77.418 47.36H69.994C69.5673 47.36 69.1833 47.2107 68.842 46.912C68.5433 46.5707 68.394 46.1867 68.394 45.76V43.328C66.1753 46.4427 62.634 48 57.77 48Z" fill="#004D61"/>
<path d="M87.146 47.36C86.6767 47.36 86.2927 47.2107 85.994 46.912C85.6953 46.6133 85.546 46.2293 85.546 45.76V15.68C85.546 15.2107 85.6953 14.8267 85.994 14.528C86.2927 14.2293 86.6767 14.08 87.146 14.08H94.122C94.5913 14.08 94.9753 14.2293 95.274 14.528C95.5727 14.8267 95.722 15.2107 95.722 15.68V17.856C96.7033 16.576 98.0047 15.5307 99.626 14.72C101.29 13.8667 103.146 13.44 105.194 13.44C109.887 13.44 113.13 15.2747 114.922 18.944C115.946 17.3227 117.375 16 119.21 14.976C121.045 13.952 123.007 13.44 125.098 13.44C128.597 13.44 131.434 14.6347 133.61 17.024C135.829 19.3707 136.938 22.8907 136.938 27.584V45.76C136.938 46.1867 136.789 46.5707 136.49 46.912C136.191 47.2107 135.807 47.36 135.338 47.36H127.914C127.445 47.36 127.039 47.2107 126.698 46.912C126.399 46.6133 126.25 46.2293 126.25 45.76V28.032C126.25 25.8987 125.802 24.3627 124.906 23.424C124.053 22.4853 122.879 22.016 121.386 22.016C120.021 22.016 118.89 22.5067 117.994 23.488C117.098 24.4267 116.65 25.9413 116.65 28.032V45.76C116.65 46.1867 116.501 46.5707 116.202 46.912C115.903 47.2107 115.519 47.36 115.05 47.36H107.626C107.157 47.36 106.773 47.2107 106.474 46.912C106.175 46.6133 106.026 46.2293 106.026 45.76V28.032C106.026 25.9413 105.557 24.4267 104.618 23.488C103.722 22.5067 102.57 22.016 101.162 22.016C99.7967 22.016 98.6447 22.5067 97.706 23.488C96.81 24.4267 96.362 25.92 96.362 27.968V45.76C96.362 46.1867 96.2127 46.5707 95.914 46.912C95.6153 47.2107 95.2313 47.36 94.762 47.36H87.146Z" fill="#004D61"/>
<path d="M153.155 48C150.894 48 148.824 47.5733 146.947 46.72C145.112 45.824 143.662 44.6293 142.595 43.136C141.571 41.6 141.059 39.9147 141.059 38.08C141.059 35.136 142.254 32.768 144.643 30.976C147.075 29.184 150.403 27.9467 154.627 27.264L162.627 26.048V25.152C162.627 23.5307 162.286 22.336 161.603 21.568C160.92 20.8 159.768 20.416 158.147 20.416C157.166 20.416 156.355 20.5867 155.715 20.928C155.075 21.2693 154.414 21.7387 153.731 22.336C153.134 22.848 152.686 23.1893 152.387 23.36C152.259 23.7013 152.024 23.872 151.683 23.872H144.707C144.28 23.872 143.918 23.744 143.619 23.488C143.363 23.1893 143.256 22.848 143.299 22.464C143.342 21.312 143.896 20.032 144.963 18.624C146.072 17.216 147.736 16 149.955 14.976C152.216 13.952 154.99 13.44 158.275 13.44C163.523 13.44 167.406 14.6133 169.923 16.96C172.44 19.264 173.699 22.3787 173.699 26.304V45.76C173.699 46.1867 173.55 46.5707 173.251 46.912C172.952 47.2107 172.568 47.36 172.099 47.36H164.675C164.248 47.36 163.864 47.2107 163.523 46.912C163.224 46.5707 163.075 46.1867 163.075 45.76V43.52C162.136 44.8427 160.814 45.9307 159.107 46.784C157.443 47.5947 155.459 48 153.155 48ZM156.163 40.704C158.126 40.704 159.704 40.064 160.899 38.784C162.136 37.504 162.755 35.6267 162.755 33.152V32.256L157.315 33.216C153.475 33.8987 151.555 35.2427 151.555 37.248C151.555 38.3147 152.003 39.168 152.899 39.808C153.795 40.4053 154.883 40.704 156.163 40.704Z" fill="#004D61"/>
<path d="M185.047 47.36C184.62 47.36 184.236 47.2107 183.895 46.912C183.596 46.5707 183.447 46.1867 183.447 45.76V22.464H178.583C178.114 22.464 177.73 22.3147 177.431 22.016C177.132 21.7173 176.983 21.3333 176.983 20.864V15.68C176.983 15.2107 177.132 14.8267 177.431 14.528C177.73 14.2293 178.114 14.08 178.583 14.08H183.447V12.032C183.447 7.808 184.642 4.75733 187.031 2.88C189.463 0.959999 192.94 0 197.463 0H202.455C202.924 0 203.308 0.149333 203.607 0.447998C203.906 0.746666 204.055 1.13067 204.055 1.6V6.784C204.055 7.21067 203.906 7.59467 203.607 7.936C203.308 8.23466 202.924 8.384 202.455 8.384H197.975C196.567 8.384 195.564 8.72533 194.967 9.408C194.37 10.048 194.071 11.0293 194.071 12.352V14.08H201.815C202.284 14.08 202.668 14.2293 202.967 14.528C203.266 14.8267 203.415 15.2107 203.415 15.68V20.864C203.415 21.2907 203.266 21.6747 202.967 22.016C202.668 22.3147 202.284 22.464 201.815 22.464H194.071V45.76C194.071 46.1867 193.922 46.5707 193.623 46.912C193.324 47.2107 192.94 47.36 192.471 47.36H185.047Z" fill="#004D61"/>
<path d="M216.53 48C214.269 48 212.199 47.5733 210.322 46.72C208.487 45.824 207.037 44.6293 205.97 43.136C204.946 41.6 204.434 39.9147 204.434 38.08C204.434 35.136 205.629 32.768 208.018 30.976C210.45 29.184 213.778 27.9467 218.002 27.264L226.002 26.048V25.152C226.002 23.5307 225.661 22.336 224.978 21.568C224.295 20.8 223.143 20.416 221.522 20.416C220.541 20.416 219.73 20.5867 219.09 20.928C218.45 21.2693 217.789 21.7387 217.106 22.336C216.509 22.848 216.061 23.1893 215.762 23.36C215.634 23.7013 215.399 23.872 215.058 23.872H208.082C207.655 23.872 207.293 23.744 206.994 23.488C206.738 23.1893 206.631 22.848 206.674 22.464C206.717 21.312 207.271 20.032 208.338 18.624C209.447 17.216 211.111 16 213.33 14.976C215.591 13.952 218.365 13.44 221.65 13.44C226.898 13.44 230.781 14.6133 233.298 16.96C235.815 19.264 237.074 22.3787 237.074 26.304V45.76C237.074 46.1867 236.925 46.5707 236.626 46.912C236.327 47.2107 235.943 47.36 235.474 47.36H228.05C227.623 47.36 227.239 47.2107 226.898 46.912C226.599 46.5707 226.45 46.1867 226.45 45.76V43.52C225.511 44.8427 224.189 45.9307 222.482 46.784C220.818 47.5947 218.834 48 216.53 48ZM219.538 40.704C221.501 40.704 223.079 40.064 224.274 38.784C225.511 37.504 226.13 35.6267 226.13 33.152V32.256L220.69 33.216C216.85 33.8987 214.93 35.2427 214.93 37.248C214.93 38.3147 215.378 39.168 216.274 39.808C217.17 40.4053 218.258 40.704 219.538 40.704Z" fill="#004D61"/>
<path d="M244.896 47.36C244.427 47.36 244.043 47.2107 243.744 46.912C243.445 46.6133 243.296 46.2293 243.296 45.76V15.68C243.296 15.2107 243.445 14.8267 243.744 14.528C244.043 14.2293 244.427 14.08 244.896 14.08H252.256C252.725 14.08 253.109 14.2507 253.408 14.592C253.749 14.8907 253.92 15.2533 253.92 15.68V18.24C256.267 15.4667 259.424 14.08 263.392 14.08H266.208C266.677 14.08 267.061 14.2293 267.36 14.528C267.659 14.8267 267.808 15.2107 267.808 15.68V22.272C267.808 22.6987 267.659 23.0827 267.36 23.424C267.061 23.7227 266.677 23.872 266.208 23.872H260C258.251 23.872 256.885 24.3627 255.904 25.344C254.965 26.2827 254.496 27.6267 254.496 29.376V45.76C254.496 46.2293 254.325 46.6133 253.984 46.912C253.685 47.2107 253.301 47.36 252.832 47.36H244.896Z" fill="#004D61"/>
<path d="M272.958 47.36C272.489 47.36 272.105 47.2107 271.806 46.912C271.508 46.6133 271.358 46.2293 271.358 45.76V15.68C271.358 15.2107 271.508 14.8267 271.806 14.528C272.105 14.2293 272.489 14.08 272.958 14.08H279.934C280.404 14.08 280.788 14.2293 281.086 14.528C281.385 14.8267 281.534 15.2107 281.534 15.68V17.856C282.516 16.576 283.817 15.5307 285.438 14.72C287.102 13.8667 288.958 13.44 291.007 13.44C295.7 13.44 298.942 15.2747 300.734 18.944C301.758 17.3227 303.188 16 305.022 14.976C306.857 13.952 308.82 13.44 310.91 13.44C314.409 13.44 317.246 14.6347 319.422 17.024C321.641 19.3707 322.75 22.8907 322.75 27.584V45.76C322.75 46.1867 322.601 46.5707 322.302 46.912C322.004 47.2107 321.62 47.36 321.15 47.36H313.726C313.257 47.36 312.852 47.2107 312.51 46.912C312.212 46.6133 312.062 46.2293 312.062 45.76V28.032C312.062 25.8987 311.615 24.3627 310.718 23.424C309.865 22.4853 308.692 22.016 307.198 22.016C305.833 22.016 304.702 22.5067 303.806 23.488C302.91 24.4267 302.462 25.9413 302.462 28.032V45.76C302.462 46.1867 302.313 46.5707 302.014 46.912C301.716 47.2107 301.332 47.36 300.862 47.36H293.438C292.969 47.36 292.585 47.2107 292.286 46.912C291.988 46.6133 291.838 46.2293 291.838 45.76V28.032C291.838 25.9413 291.369 24.4267 290.43 23.488C289.534 22.5067 288.382 22.016 286.974 22.016C285.609 22.016 284.457 22.5067 283.518 23.488C282.622 24.4267 282.174 25.92 282.174 27.968V45.76C282.174 46.1867 282.025 46.5707 281.726 46.912C281.428 47.2107 281.044 47.36 280.574 47.36H272.958Z" fill="#004D61"/>
<path d="M338.967 48C336.706 48 334.637 47.5733 332.759 46.72C330.925 45.824 329.474 44.6293 328.407 43.136C327.383 41.6 326.871 39.9147 326.871 38.08C326.871 35.136 328.066 32.768 330.455 30.976C332.887 29.184 336.215 27.9467 340.439 27.264L348.439 26.048V25.152C348.439 23.5307 348.098 22.336 347.415 21.568C346.733 20.8 345.581 20.416 343.959 20.416C342.978 20.416 342.167 20.5867 341.527 20.928C340.887 21.2693 340.226 21.7387 339.543 22.336C338.946 22.848 338.498 23.1893 338.199 23.36C338.071 23.7013 337.837 23.872 337.495 23.872H330.519C330.093 23.872 329.73 23.744 329.431 23.488C329.175 23.1893 329.069 22.848 329.111 22.464C329.154 21.312 329.709 20.032 330.775 18.624C331.885 17.216 333.549 16 335.767 14.976C338.029 13.952 340.802 13.44 344.087 13.44C349.335 13.44 353.218 14.6133 355.736 16.96C358.253 19.264 359.512 22.3787 359.512 26.304V45.76C359.512 46.1867 359.362 46.5707 359.064 46.912C358.765 47.2107 358.381 47.36 357.911 47.36H350.487C350.061 47.36 349.677 47.2107 349.335 46.912C349.037 46.5707 348.887 46.1867 348.887 45.76V43.52C347.949 44.8427 346.626 45.9307 344.919 46.784C343.255 47.5947 341.271 48 338.967 48ZM341.975 40.704C343.938 40.704 345.517 40.064 346.711 38.784C347.949 37.504 348.567 35.6267 348.567 33.152V32.256L343.127 33.216C339.287 33.8987 337.367 35.2427 337.367 37.248C337.367 38.3147 337.815 39.168 338.711 39.808C339.607 40.4053 340.695 40.704 341.975 40.704Z" fill="#004D61"/>
</g>
<defs>
<filter id="filter0_d" x="0" y="0" width="363.512" height="56" filterUnits="userSpaceOnUse" color-interpolation-filters="sRGB">
<feFlood flood-opacity="0" result="BackgroundImageFix"/>
<feColorMatrix in="SourceAlpha" type="matrix" values="0 0 0 0 0 0 0 0 0 0 0 0 0 0 0 0 0 0 127 0" result="hardAlpha"/>
<feOffset dy="4"/>
<feGaussianBlur stdDeviation="2"/>
<feComposite in2="hardAlpha" operator="out"/>
<feColorMatrix type="matrix" values="0 0 0 0 1 0 0 0 0 1 0 0 0 0 1 0 0 0 0.25 0"/>
<feBlend mode="normal" in2="BackgroundImageFix" result="effect1_dropShadow"/>
<feBlend mode="normal" in="SourceGraphic" in2="effect1_dropShadow" result="shape"/>
</filter>
</defs>
</svg>
