<svg width="69" height="68" viewBox="0 0 69 68" fill="none" xmlns="http://www.w3.org/2000/svg">
<path d="M2.01928 32.002L32.0488 1.97249C33.3071 0.714178 35.0415 0 36.844 0H61.2281C64.969 0 68.0298 3.06077 68.0298 6.8017V31.1858C68.0298 32.9882 67.3156 34.7227 66.0233 35.981L35.9938 66.0105C33.3411 68.6632 29.022 68.6632 26.3694 66.0105L1.98528 41.6264C-0.667389 38.9737 -0.667389 34.6887 2.01928 32.002ZM52.726 20.4051C55.5487 20.4051 57.8272 18.1265 57.8272 15.3038C57.8272 12.4811 55.5487 10.2026 52.726 10.2026C49.9033 10.2026 47.6247 12.4811 47.6247 15.3038C47.6247 18.1265 49.9033 20.4051 52.726 20.4051Z" fill="white"/>
</svg>
